<svg width="286" height="32" viewBox="0 0 286 32" fill="none" xmlns="http://www.w3.org/2000/svg">
<path d="M5.34175 31.576V27.256H0.97375V5.08H5.34175V0.711998H18.8778V5.08H23.2938V14.2H18.3978V5.56H5.82175V26.776H18.3978V18.04H23.2938V27.256H18.8778V31.576H5.34175ZM33.4668 31.576V27.256H29.0988V5.08H33.4668V0.711998H47.0028V5.08H51.4188V27.256H47.0028V31.576H33.4668ZM33.9468 26.776H46.5228V5.56H33.9468V26.776ZM57.2238 31.576V5.08H61.5918V0.711998H66.3918V5.08H70.8078V13.768H74.6478V5.08H79.0638V0.711998H83.9118V5.08H88.2318V31.576H83.4318V5.56H79.5438V14.2H75.1278V27.256H70.3278V14.2H65.9118V5.56H62.0718V31.576H57.2238ZM94.0206 31.576V26.776H98.3886V5.56H94.0206V0.711998H107.605V5.56H103.189V26.776H107.605V31.576H94.0206ZM113.427 31.576V0.711998H118.275V5.08H122.595V9.4H127.011V22.408H130.851V0.711998H135.747V31.576H130.851V27.256H126.531V22.888H122.115V9.88H118.275V31.576H113.427ZM145.92 31.576V27.256H141.552V5.08H145.92V0.711998H159.456V5.08H163.872V14.2H158.976V5.56H146.4V26.776H158.976V22.888H154.656V18.52H150.24V13.768H155.136V18.04H163.872V27.256H159.456V31.576H145.92ZM183.654 31.576V27.256H179.286V22.408H184.134V26.776H196.71V18.52H183.654V14.2H179.286V5.08H183.654V0.711998H197.19V5.08H201.606V9.88H196.71V5.56H184.134V13.768H197.19V18.04H201.606V27.256H197.19V31.576H183.654ZM211.779 31.576V27.256H207.411V5.08H211.779V0.711998H225.315V5.08H229.731V27.256H225.315V31.576H211.779ZM212.259 26.776H224.835V5.56H212.259V26.776ZM239.904 31.576V27.256H235.536V5.08H239.904V0.711998H253.44V5.08H257.856V27.256H253.44V31.576H239.904ZM240.384 26.776H252.96V5.56H240.384V26.776ZM263.661 31.576V0.711998H268.509V5.08H272.829V9.4H277.245V22.408H281.085V0.711998H285.981V31.576H281.085V27.256H276.765V22.888H272.349V9.88H268.509V31.576H263.661Z" fill="black"/>
</svg>
