<svg width="69" height="14" viewBox="0 0 69 14" fill="none" xmlns="http://www.w3.org/2000/svg">
<path d="M2.25633 13.24V11.44H0.436328V5.82H2.25633V4H7.89633V5.82H9.73633V7.8H7.69633V6H2.45633V11.24H7.69633V9.42H9.73633V11.44H7.89633V13.24H2.25633ZM12.1551 13.24V5.82H13.9751V4H19.6151V5.82H21.4551V7.8H19.4151V6H14.1751V13.24H12.1551ZM25.0884 13.24V11.44H23.2684V5.82H25.0884V4H30.7284V5.82H32.5684V7.8H30.5284V6H25.2884V7.6H28.9284V9.62H25.2884V11.24H30.5284V9.4H32.5684V11.42H30.7284V13.24H25.0884ZM36.8071 13.24V11.44H34.9871V5.82H36.8071V4H42.4471V5.82H44.2871V11.24H46.1071V13.24H44.0871V11.44H42.4471V13.24H36.8071ZM37.0071 11.24H42.2471V6H37.0071V11.24ZM49.9352 13.24V11.44H48.1352V6H46.3152V4H48.1352V0.379999H50.1352V4H55.6152V6H50.1352V11.24H55.4152V9.42H57.4352V11.44H55.6152V13.24H49.9352ZM61.0649 13.24V11.44H59.2449V5.82H61.0649V4H66.7049V5.82H68.5449V7.8H66.5049V6H61.2649V7.6H64.9049V9.62H61.2649V11.24H66.5049V9.4H68.5449V11.42H66.7049V13.24H61.0649Z" fill="black"/>
</svg>
