<svg width="48" height="14" viewBox="0 0 48 14" fill="none" xmlns="http://www.w3.org/2000/svg">
<path d="M0.248828 13.24V0.379999H2.26883V5.82H3.86883V4H7.70883V5.82H9.54883V13.24H7.50883V6H4.06883V7.8H2.26883V13.24H0.248828ZM13.397 13.24V11.44H11.577V5.82H13.397V4H19.037V5.82H20.877V11.44H19.037V13.24H13.397ZM13.597 11.24H18.837V6H13.597V11.24ZM23.2957 13.24V4H28.9557V5.82H30.5557V4H34.4157V5.82H36.2157V13.24H34.2157V6H30.7557V13.24H28.7557V6H25.3157V13.24H23.2957ZM40.2524 13.24V11.44H38.4324V5.82H40.2524V4H45.8924V5.82H47.7324V7.8H45.6924V6H40.4524V7.6H44.0924V9.62H40.4524V11.24H45.6924V9.4H47.7324V11.42H45.8924V13.24H40.2524Z" fill="black"/>
</svg>
