<svg width="61" height="17" viewBox="0 0 61 17" fill="none" xmlns="http://www.w3.org/2000/svg">
<path d="M0.684375 16.76V5.82H2.50438V4H8.14438V5.82H9.98438V11.44H8.14438V13.24H2.70438V16.76H0.684375ZM2.70438 11.24H7.94438V6H2.70438V11.24ZM12.4031 13.24V5.82H14.2231V4H19.8631V5.82H21.7031V7.8H19.6631V6H14.4231V13.24H12.4031ZM25.3364 13.24V11.44H23.5164V5.82H25.3364V4H30.9764V5.82H32.8164V11.44H30.9764V13.24H25.3364ZM25.5364 11.24H30.7764V6H25.5364V11.24ZM35.2352 13.24V2.2H37.0552V0.379999H42.6952V2.2H44.5352V4.2H42.4952V2.4H37.2552V5.82H44.5352V13.24H42.4952V7.8H37.2552V13.24H35.2352ZM46.9539 13.24V0.379999H48.9739V13.24H46.9539ZM52.8169 13.24V11.44H50.9969V5.82H52.8169V4H58.4569V5.82H60.2969V7.8H58.2569V6H53.0169V7.6H56.6569V9.62H53.0169V11.24H58.2569V9.4H60.2969V11.42H58.4569V13.24H52.8169Z" fill="black"/>
</svg>
