<svg width="75" height="17" viewBox="0 0 75 17" fill="none" xmlns="http://www.w3.org/2000/svg">
<path d="M0.604297 13.24V11.24H7.8643V9.62H2.4243V7.8H0.604297V5.82H2.4243V4H9.9043V6H2.6243V7.6H8.0643V9.42H9.9043V11.44H8.0643V13.24H0.604297ZM15.943 13.24V11.44H14.143V6H12.323V4H14.143V0.379999H16.143V4H21.623V6H16.143V11.24H21.423V9.42H23.443V11.44H21.623V13.24H15.943ZM27.0727 13.24V11.44H25.2527V5.82H27.0727V4H32.7127V5.82H34.5527V11.24H36.3727V13.24H34.3527V11.44H32.7127V13.24H27.0727ZM27.2727 11.24H32.5127V6H27.2727V11.24ZM37.9871 13.24V0.379999H40.0071V7.6H41.6071V5.82H45.2471V4H47.2871V6H45.4471V7.8H41.8071V9.42H45.4471V11.24H47.2871V13.24H45.2471V11.44H41.6071V9.62H40.0071V13.24H37.9871ZM49.7059 13.24V4H51.7259V13.24H49.7059ZM49.7059 2.4V0.379999H51.7259V2.4H49.7059ZM53.7488 13.24V4H61.2088V5.82H63.0488V13.24H61.0088V6H55.7688V13.24H53.7488ZM66.897 16.86V15.06H65.077V13.06H67.097V14.86H72.357V11.44H66.897V9.62H65.077V5.82H66.897V4H72.557V5.82H74.377V15.06H72.557V16.86H66.897ZM67.097 9.42H72.357V6H67.097V9.42Z" fill="black"/>
</svg>
