<svg width="309" height="67" viewBox="0 0 309 67" fill="none" xmlns="http://www.w3.org/2000/svg">
<path d="M0.848906 10.256V3.692H1.94091V2.6H5.32491V3.692H6.42891V7.064H5.32491V8.144H2.06091V10.256H0.848906ZM2.06091 6.944H5.20491V3.8H2.06091V6.944ZM7.88016 8.144V2.6H9.09216V8.144H7.88016ZM7.88016 1.64V0.427999H9.09216V1.64H7.88016ZM10.5403 8.144V6.944H11.6323V5.852H12.7123V4.88H11.6323V3.8H10.5403V2.6H11.7523V3.692H12.8323V4.76H13.8163V3.692H14.8963V2.6H16.1203V3.8H15.0163V4.88H13.9363V5.852H15.0163V6.944H16.1203V8.144H14.8963V7.064H13.8163V5.972H12.8323V7.064H11.7523V8.144H10.5403ZM18.0659 8.144V7.064H16.9739V3.692H18.0659V2.6H21.4499V3.692H22.5539V6.944H23.6459V8.144H22.4339V7.064H21.4499V8.144H18.0659ZM18.1859 6.944H21.3299V3.8H18.1859V6.944ZM25.095 8.144V3.692H26.187V2.6H29.571V3.692H30.675V4.88H29.451V3.8H26.307V8.144H25.095ZM32.855 8.144V7.064H31.763V3.692H32.855V2.6H36.131V0.427999H37.343V7.064H36.239V8.144H32.855ZM32.975 6.944H36.119V3.8H32.975V6.944ZM38.7942 8.144V2.6H40.0062V8.144H38.7942ZM38.7942 1.64V0.427999H40.0062V1.64H38.7942ZM42.312 8.144V7.064H41.22V3.692H42.312V2.6H45.696V3.692H46.8V7.064H45.696V8.144H42.312ZM42.432 6.944H45.576V3.8H42.432V6.944ZM55.0096 8.144V5.972H50.6536V3.692H51.7456V2.6H52.8256V1.52H53.9296V0.427999H56.2336V8.144H55.0096ZM51.8656 4.76H55.0096V1.64H54.0496V2.72H52.9456V3.8H51.8656V4.76ZM58.7768 8.144V7.064H57.6848V1.52H58.7768V0.427999H62.1608V1.52H63.2648V7.064H62.1608V8.144H58.7768ZM58.8968 6.944H62.0408V1.64H58.8968V6.944ZM69.0721 8.144V5.972H64.7161V3.692H65.8081V2.6H66.8881V1.52H67.9921V0.427999H70.2961V8.144H69.0721ZM65.9281 4.76H69.0721V1.64H68.1121V2.72H67.0081V3.8H65.9281V4.76ZM74.1497 8.144V2.6H75.3617V8.144H74.1497ZM74.1497 1.64V0.427999H75.3617V1.64H74.1497ZM76.8098 8.144V6.944H81.1658V5.972H77.9018V4.88H76.8098V3.692H77.9018V2.6H82.3898V3.8H78.0218V4.76H81.2858V5.852H82.3898V7.064H81.2858V8.144H76.8098ZM87.3354 8.144V7.064H86.2434V3.692H87.3354V2.6H90.7194V3.692H91.8234V6.944H92.9154V8.144H91.7034V7.064H90.7194V8.144H87.3354ZM87.4554 6.944H90.5994V3.8H87.4554V6.944ZM96.7669 8.144V2.6H100.163V3.692H101.123V2.6H103.439V3.692H104.519V8.144H103.319V3.8H101.243V8.144H100.043V3.8H97.9789V8.144H96.7669ZM105.966 10.256V3.692H107.058V2.6H110.442V3.692H111.546V7.064H110.442V8.144H107.178V10.256H105.966ZM107.178 6.944H110.322V3.8H107.178V6.944ZM112.997 8.144V0.427999H114.209V8.144H112.997ZM115.214 5.6V4.388H118.598V5.6H115.214ZM124.01 8.144V5.972H119.654V3.692H120.746V2.6H121.826V1.52H122.93V0.427999H125.234V8.144H124.01ZM120.866 4.76H124.01V1.64H123.05V2.72H121.946V3.8H120.866V4.76ZM127.777 8.144V7.064H126.685V1.52H127.777V0.427999H131.161V1.52H132.265V7.064H131.161V8.144H127.777ZM127.897 6.944H131.041V1.64H127.897V6.944ZM138.072 8.144V5.972H133.716V3.692H134.808V2.6H135.888V1.52H136.992V0.427999H139.296V8.144H138.072ZM134.928 4.76H138.072V1.64H137.112V2.72H136.008V3.8H134.928V4.76ZM145.322 8.144V7.064H144.242V3.8H143.15V2.6H144.242V0.427999H145.442V2.6H148.73V3.8H145.442V6.944H148.61V5.852H149.822V7.064H148.73V8.144H145.322ZM152 8.144V7.064H150.908V3.692H152V2.6H155.384V3.692H156.488V7.064H155.384V8.144H152ZM152.12 6.944H155.264V3.8H152.12V6.944ZM157.939 8.144V0.427999H159.151V4.76H160.111V3.692H162.295V2.6H163.519V3.8H162.415V4.88H160.231V5.852H162.415V6.944H163.519V8.144H162.295V7.064H160.111V5.972H159.151V8.144H157.939ZM165.347 8.144V7.064H164.255V3.692H165.347V2.6H168.731V3.692H169.835V4.88H168.611V3.8H165.467V4.76H167.651V5.972H165.467V6.944H168.611V5.84H169.835V7.052H168.731V8.144H165.347ZM171.286 8.144V2.6H175.762V3.692H176.866V8.144H175.642V3.8H172.498V8.144H171.286ZM180.72 8.144V0.427999H181.932V8.144H180.72ZM184.238 8.144V7.064H183.146V3.692H184.238V2.6H187.622V3.692H188.726V6.944H189.818V8.144H188.606V7.064H187.622V8.144H184.238ZM184.358 6.944H187.502V3.8H184.358V6.944ZM191.878 8.144V7.064H190.786V2.6H191.998V6.944H195.142V2.6H196.366V7.064H195.262V8.144H191.878ZM197.818 8.144V2.6H202.294V3.692H203.398V8.144H202.174V3.8H199.03V8.144H197.818ZM205.707 8.144V7.064H204.615V3.692H205.707V2.6H209.091V3.692H210.195V4.88H208.971V3.8H205.827V6.944H208.971V5.852H210.195V7.064H209.091V8.144H205.707ZM211.411 8.144V0.427999H212.623V3.692H213.583V2.6H215.887V3.692H216.991V8.144H215.767V3.8H213.703V4.88H212.623V8.144H211.411ZM218.443 10.256V3.692H219.535V2.6H222.919V3.692H224.023V7.064H222.919V8.144H219.655V10.256H218.443ZM219.655 6.944H222.799V3.8H219.655V6.944ZM226.566 8.144V7.064H225.474V3.692H226.566V2.6H229.95V3.692H231.054V6.944H232.146V8.144H230.934V7.064H229.95V8.144H226.566ZM226.686 6.944H229.83V3.8H226.686V6.944ZM234.089 8.144V7.064H232.997V3.692H234.089V2.6H237.365V0.427999H238.577V7.064H237.473V8.144H234.089ZM234.209 6.944H237.353V3.8H234.209V6.944ZM240.569 9.08V8.408H241.121V8H240.029V6.788H241.241V7.88H241.781V8.528H241.241V9.08H240.569ZM246.722 8.144V7.064H245.63V3.692H246.722V2.6H250.106V3.692H251.21V4.88H249.986V3.8H246.842V6.944H249.986V5.852H251.21V7.064H250.106V8.144H246.722ZM253.39 8.144V7.064H252.298V3.692H253.39V2.6H256.774V3.692H257.878V7.064H256.774V8.144H253.39ZM253.51 6.944H256.654V3.8H253.51V6.944ZM259.329 8.144V2.6H263.805V3.692H264.909V8.144H263.685V3.8H260.541V8.144H259.329ZM267.944 8.144V7.064H266.852V4.88H265.76V2.6H266.972V4.76H268.052V6.944H269.036V4.76H270.116V2.6H271.34V4.88H270.236V7.064H269.156V8.144H267.944ZM273.406 8.144V7.064H272.314V3.692H273.406V2.6H276.79V3.692H277.894V4.88H276.67V3.8H273.526V4.76H275.71V5.972H273.526V6.944H276.67V5.84H277.894V7.052H276.79V8.144H273.406ZM279.345 8.144V3.692H280.437V2.6H283.821V3.692H284.925V4.88H283.701V3.8H280.557V8.144H279.345ZM288.548 8.144V7.064H287.468V3.8H286.376V2.6H287.468V0.427999H288.668V2.6H291.956V3.8H288.668V6.944H291.836V5.852H293.048V7.064H291.956V8.144H288.548ZM295.226 8.144V7.064H294.134V3.692H295.226V2.6H298.61V3.692H299.714V4.88H298.49V3.8H295.346V4.76H297.53V5.972H295.346V6.944H298.49V5.84H299.714V7.052H298.61V8.144H295.226ZM301.165 8.144V3.692H302.257V2.6H305.641V3.692H306.745V4.88H305.521V3.8H302.377V8.144H301.165ZM306.932 9.08V8.408H307.484V8H306.392V6.788H307.604V7.88H308.144V8.528H307.604V9.08H306.932ZM22.062 22.144V21.064H20.97V17.692H22.062V16.6H25.446V17.692H26.55V18.88H25.326V17.8H22.182V18.76H24.366V19.972H22.182V20.944H25.326V19.84H26.55V21.052H25.446V22.144H22.062ZM28.0013 22.144V20.944H29.0933V19.852H30.1733V18.88H29.0933V17.8H28.0013V16.6H29.2133V17.692H30.2933V18.76H31.2773V17.692H32.3573V16.6H33.5813V17.8H32.4773V18.88H31.3973V19.852H32.4773V20.944H33.5813V22.144H32.3573V21.064H31.2773V19.972H30.2933V21.064H29.2133V22.144H28.0013ZM35.0325 24.256V17.692H36.1245V16.6H39.5085V17.692H40.6125V21.064H39.5085V22.144H36.2445V24.256H35.0325ZM36.2445 20.944H39.3885V17.8H36.2445V20.944ZM42.0638 22.144V14.428H43.2758V22.144H42.0638ZM45.5815 22.144V21.064H44.4895V17.692H45.5815V16.6H48.9655V17.692H50.0695V21.064H48.9655V22.144H45.5815ZM45.7015 20.944H48.8455V17.8H45.7015V20.944ZM51.5208 22.144V17.692H52.6128V16.6H55.9968V17.692H57.1008V18.88H55.8768V17.8H52.7328V22.144H51.5208ZM59.2808 22.144V21.064H58.1888V17.692H59.2808V16.6H62.6648V17.692H63.7688V18.88H62.5448V17.8H59.4008V18.76H61.5848V19.972H59.4008V20.944H62.5448V19.84H63.7688V21.052H62.6648V22.144H59.2808ZM65.22 22.144V17.692H66.312V16.6H69.696V17.692H70.8V18.88H69.576V17.8H66.432V22.144H65.22ZM75.7456 22.144V21.064H74.6536V17.692H75.7456V16.6H79.1296V17.692H80.2336V20.944H81.3256V22.144H80.1136V21.064H79.1296V22.144H75.7456ZM75.8656 20.944H79.0096V17.8H75.8656V20.944ZM82.4114 22.144V16.6H86.8874V17.692H87.9914V22.144H86.7674V17.8H83.6234V22.144H82.4114ZM90.3003 22.144V21.064H89.2083V17.692H90.3003V16.6H93.5763V14.428H94.7883V21.064H93.6843V22.144H90.3003ZM90.4203 20.944H93.5643V17.8H90.4203V20.944ZM100.814 22.144V21.064H99.7339V17.8H98.6419V16.6H99.7339V14.428H100.934V16.6H104.222V17.8H100.934V20.944H104.102V19.852H105.314V21.064H104.222V22.144H100.814ZM106.529 22.144V14.428H107.741V17.692H108.701V16.6H111.005V17.692H112.109V22.144H110.885V17.8H108.821V18.88H107.741V22.144H106.529ZM114.417 22.144V21.064H113.325V17.692H114.417V16.6H117.801V17.692H118.905V18.88H117.681V17.8H114.537V18.76H116.721V19.972H114.537V20.944H117.681V19.84H118.905V21.052H117.801V22.144H114.417ZM122.759 22.144V15.52H123.851V14.428H127.235V15.52H128.339V16.72H127.115V15.64H123.971V17.692H128.339V22.144H127.115V18.88H123.971V22.144H122.759ZM129.79 22.144V17.692H130.882V16.6H134.266V17.692H135.37V18.88H134.146V17.8H131.002V22.144H129.79ZM136.587 22.144V20.944H140.943V19.972H137.679V18.88H136.587V17.692H137.679V16.6H142.167V17.8H137.799V18.76H141.063V19.852H142.167V21.064H141.063V22.144H136.587ZM145.79 22.144V21.064H144.71V17.8H143.618V16.6H144.71V14.428H145.91V16.6H149.198V17.8H145.91V20.944H149.078V19.852H150.29V21.064H149.198V22.144H145.79ZM154.142 22.144V16.6H157.538V17.692H158.498V16.6H160.814V17.692H161.894V22.144H160.694V17.8H158.618V22.144H157.418V17.8H155.354V22.144H154.142ZM163.341 24.256V17.692H164.433V16.6H167.817V17.692H168.921V21.064H167.817V22.144H164.553V24.256H163.341ZM164.553 20.944H167.697V17.8H164.553V20.944ZM170.372 22.144V14.428H171.584V22.144H170.372ZM172.589 19.6V18.388H175.973V19.6H172.589ZM181.385 22.144V19.972H177.029V17.692H178.121V16.6H179.201V15.52H180.305V14.428H182.609V22.144H181.385ZM178.241 18.76H181.385V15.64H180.425V16.72H179.321V17.8H178.241V18.76ZM185.152 22.144V21.064H184.06V15.52H185.152V14.428H188.536V15.52H189.64V21.064H188.536V22.144H185.152ZM185.272 20.944H188.416V15.64H185.272V20.944ZM195.447 22.144V19.972H191.091V17.692H192.183V16.6H193.263V15.52H194.367V14.428H196.671V22.144H195.447ZM192.303 18.76H195.447V15.64H194.487V16.72H193.383V17.8H192.303V18.76ZM202.697 22.144V15.64H201.737V16.72H200.525V15.52H201.617V14.428H205.001V15.52H206.105V16.72H204.881V15.64H203.921V22.144H202.697ZM208.285 22.144V21.064H207.193V15.52H208.285V14.428H211.669V15.52H212.773V17.8H211.549V15.64H208.405V20.944H211.549V19.972H210.469V18.88H209.365V17.692H210.589V18.76H212.773V21.064H211.669V22.144H208.285ZM218.798 22.144V21.064H217.718V17.8H216.626V16.6H217.718V14.428H218.918V16.6H222.206V17.8H218.918V20.944H222.086V19.852H223.298V21.064H222.206V22.144H218.798ZM224.747 22.144V17.692H225.839V16.6H229.223V17.692H230.327V18.88H229.103V17.8H225.959V22.144H224.747ZM232.507 22.144V21.064H231.415V17.692H232.507V16.6H235.891V17.692H236.995V20.944H238.087V22.144H236.875V21.064H235.891V22.144H232.507ZM232.627 20.944H235.771V17.8H232.627V20.944ZM239.173 22.144V16.6H240.385V22.144H239.173ZM239.173 15.64V14.428H240.385V15.64H239.173ZM242.925 22.144V21.064H241.833V17.692H242.925V16.6H246.201V14.428H247.413V21.064H246.309V22.144H242.925ZM243.045 20.944H246.189V17.8H243.045V20.944ZM248.865 22.144V16.6H250.077V22.144H248.865ZM248.865 15.64V14.428H250.077V15.64H248.865ZM251.29 22.144V16.6H255.766V17.692H256.87V22.144H255.646V17.8H252.502V22.144H251.29ZM259.179 24.316V23.236H258.087V22.036H259.299V23.116H262.455V21.064H259.179V19.972H258.087V17.692H259.179V16.6H262.575V17.692H263.667V23.236H262.575V24.316H259.179ZM259.299 19.852H262.455V17.8H259.299V19.852ZM268.613 22.144V21.064H267.521V14.428H268.733V16.6H271.997V17.692H273.101V21.064H271.997V22.144H268.613ZM268.733 20.944H271.877V17.8H268.733V20.944ZM275.41 22.144V21.064H274.318V17.692H275.41V16.6H278.794V17.692H279.898V21.064H278.794V22.144H275.41ZM275.53 20.944H278.674V17.8H275.53V20.944ZM283.521 22.144V21.064H282.441V17.8H281.349V16.6H282.441V14.428H283.641V16.6H286.929V17.8H283.641V20.944H286.809V19.852H288.021V21.064H286.929V22.144H283.521ZM110.554 36.144V28.428H111.766V36.144H110.554ZM114.072 36.144V35.064H112.98V31.692H114.072V30.6H117.456V31.692H118.56V34.944H119.652V36.144H118.44V35.064H117.456V36.144H114.072ZM114.192 34.944H117.336V31.8H114.192V34.944ZM121.712 36.144V35.064H120.62V30.6H121.832V34.944H124.976V30.6H126.2V35.064H125.096V36.144H121.712ZM127.652 36.144V30.6H132.128V31.692H133.232V36.144H132.008V31.8H128.864V36.144H127.652ZM135.541 36.144V35.064H134.449V31.692H135.541V30.6H138.925V31.692H140.029V32.88H138.805V31.8H135.661V34.944H138.805V33.852H140.029V35.064H138.925V36.144H135.541ZM141.245 36.144V28.428H142.457V31.692H143.417V30.6H145.721V31.692H146.825V36.144H145.601V31.8H143.537V32.88H142.457V36.144H141.245ZM148.277 36.144V30.6H149.489V36.144H148.277ZM148.277 29.64V28.428H149.489V29.64H148.277ZM150.702 36.144V30.6H155.178V31.692H156.282V36.144H155.058V31.8H151.914V36.144H150.702ZM158.591 38.316V37.236H157.499V36.036H158.711V37.116H161.867V35.064H158.591V33.972H157.499V31.692H158.591V30.6H161.987V31.692H163.079V37.236H161.987V38.316H158.591ZM158.711 33.852H161.867V31.8H158.711V33.852ZM166.933 36.144V34.944H171.289V33.972H168.025V32.88H166.933V31.692H168.025V30.6H172.513V31.8H168.145V32.76H171.409V33.852H172.513V35.064H171.409V36.144H166.933ZM174.822 36.144V35.064H173.73V31.692H174.822V30.6H178.206V31.692H179.31V35.064H178.206V36.144H174.822ZM174.942 34.944H178.086V31.8H174.942V34.944ZM181.853 36.144V35.064H180.761V31.692H181.853V30.6H185.237V31.692H186.341V35.064H185.237V36.144H181.853ZM181.973 34.944H185.117V31.8H181.973V34.944ZM187.792 36.144V30.6H192.268V31.692H193.372V36.144H192.148V31.8H189.004V36.144H187.792ZM194.824 36V34.788H196.036V36H194.824ZM16.3081 64.144V63.064H15.2161V58.6H16.4281V62.944H19.5721V58.6H20.7961V63.064H19.6921V64.144H16.3081ZM22.1302 64.144V62.944H26.4862V61.972H23.2222V60.88H22.1302V59.692H23.2222V58.6H27.7102V59.8H23.3422V60.76H26.6062V61.852H27.7102V63.064H26.6062V64.144H22.1302ZM30.019 64.144V63.064H28.927V59.692H30.019V58.6H33.403V59.692H34.507V60.88H33.283V59.8H30.139V60.76H32.323V61.972H30.139V62.944H33.283V61.84H34.507V63.052H33.403V64.144H30.019ZM35.9583 64.144V59.692H37.0503V58.6H40.4343V59.692H41.5383V60.88H40.3143V59.8H37.1703V64.144H35.9583ZM42.7552 64.144V62.944H47.1112V61.972H43.8472V60.88H42.7552V59.692H43.8472V58.6H48.3352V59.8H43.9672V60.76H47.2312V61.852H48.3352V63.064H47.2312V64.144H42.7552ZM53.2808 64.144V63.064H52.1888V59.692H53.2808V58.6H56.6648V59.692H57.7688V60.88H56.5448V59.8H53.4008V62.944H56.5448V61.852H57.7688V63.064H56.6648V64.144H53.2808ZM59.9487 64.144V63.064H58.8567V59.692H59.9487V58.6H63.3327V59.692H64.4367V62.944H65.5287V64.144H64.3167V63.064H63.3327V64.144H59.9487ZM60.0687 62.944H63.2127V59.8H60.0687V62.944ZM66.6145 64.144V58.6H71.0905V59.692H72.1945V64.144H70.9705V59.8H67.8265V64.144H66.6145ZM77.1401 64.144V63.064H76.0481V56.428H77.2601V58.6H80.5241V59.692H81.6281V63.064H80.5241V64.144H77.1401ZM77.2601 62.944H80.4041V59.8H77.2601V62.944ZM84.1714 64.144V63.064H83.0794V58.6H84.2914V62.944H87.4354V58.6H88.6594V63.064H87.5554V64.144H84.1714ZM91.2026 66.316V65.236H90.1106V64.036H91.3226V65.116H94.4786V63.064H91.2026V61.972H90.1106V58.6H91.3226V61.852H94.4786V58.6H95.6906V65.236H94.5986V66.316H91.2026ZM101.824 65.236V64.144H100.636V63.064H99.5442V61.852H100.756V62.944H103.9V60.88H100.636V59.8H99.5442V57.52H100.636V56.428H101.824V55.336H103.048V56.428H104.02V57.52H105.124V58.72H103.9V57.64H100.756V59.692H104.02V60.76H105.124V63.064H104.02V64.144H103.048V65.236H101.824ZM106.575 66.256V59.692H107.667V58.6H111.051V59.692H112.155V63.064H111.051V64.144H107.787V66.256H106.575ZM107.787 62.944H110.931V59.8H107.787V62.944ZM113.607 64.144V58.6H114.819V64.144H113.607ZM113.607 57.64V56.428H114.819V57.64H113.607ZM116.267 64.144V62.944H117.359V61.852H118.439V60.88H117.359V59.8H116.267V58.6H117.479V59.692H118.559V60.76H119.543V59.692H120.623V58.6H121.847V59.8H120.743V60.88H119.663V61.852H120.743V62.944H121.847V64.144H120.623V63.064H119.543V61.972H118.559V63.064H117.479V64.144H116.267ZM127.654 64.144V61.972H123.298V59.692H124.39V58.6H125.47V57.52H126.574V56.428H128.878V64.144H127.654ZM124.51 60.76H127.654V57.64H126.694V58.72H125.59V59.8H124.51V60.76ZM131.421 64.144V63.064H130.329V57.52H131.421V56.428H134.805V57.52H135.909V63.064H134.805V64.144H131.421ZM131.541 62.944H134.685V57.64H131.541V62.944ZM141.717 64.144V61.972H137.361V59.692H138.453V58.6H139.533V57.52H140.637V56.428H142.941V64.144H141.717ZM138.573 60.76H141.717V57.64H140.757V58.72H139.653V59.8H138.573V60.76ZM147.886 64.144V63.064H146.794V59.692H147.886V58.6H151.27V59.692H152.374V62.944H153.466V64.144H152.254V63.064H151.27V64.144H147.886ZM148.006 62.944H151.15V59.8H148.006V62.944ZM154.552 64.144V58.6H159.028V59.692H160.132V64.144H158.908V59.8H155.764V64.144H154.552ZM162.441 64.144V63.064H161.349V59.692H162.441V58.6H165.717V56.428H166.929V63.064H165.825V64.144H162.441ZM162.561 62.944H165.705V59.8H162.561V62.944ZM171.875 64.144V63.064H170.783V59.692H171.875V58.6H175.259V59.692H176.363V60.88H175.139V59.8H171.995V60.76H174.179V61.972H171.995V62.944H175.139V61.84H176.363V63.052H175.259V64.144H171.875ZM178.906 64.144V63.064H177.814V59.692H178.906V58.6H182.29V59.692H183.394V62.944H184.486V64.144H183.274V63.064H182.29V64.144H178.906ZM179.026 62.944H182.17V59.8H179.026V62.944ZM185.935 64.144V59.692H187.027V58.6H190.411V59.692H191.515V60.88H190.291V59.8H187.147V64.144H185.935ZM192.603 64.144V58.6H197.079V59.692H198.183V64.144H196.959V59.8H193.815V64.144H192.603ZM202.036 64.144V56.428H203.248V64.144H202.036ZM204.697 64.144V58.6H205.909V64.144H204.697ZM204.697 57.64V56.428H205.909V57.64H204.697ZM207.357 64.144V57.52H208.449V56.428H211.833V57.52H212.937V58.72H211.713V57.64H208.569V59.692H210.753V60.88H208.569V64.144H207.357ZM215.482 64.144V63.064H214.402V59.8H213.31V58.6H214.402V56.428H215.602V58.6H218.89V59.8H215.602V62.944H218.77V61.852H219.982V63.064H218.89V64.144H215.482ZM221.431 64.144V58.6H222.643V64.144H221.431ZM221.431 57.64V56.428H222.643V57.64H221.431ZM223.857 64.144V58.6H227.253V59.692H228.213V58.6H230.529V59.692H231.609V64.144H230.409V59.8H228.333V64.144H227.133V59.8H225.069V64.144H223.857ZM234.031 64.144V63.064H232.939V59.692H234.031V58.6H237.415V59.692H238.519V60.88H237.295V59.8H234.151V60.76H236.335V61.972H234.151V62.944H237.295V61.84H238.519V63.052H237.415V64.144H234.031ZM242.372 64.144V59.692H243.464V58.6H246.848V59.692H247.952V60.88H246.728V59.8H243.584V64.144H242.372ZM250.132 64.144V63.064H249.04V59.692H250.132V58.6H253.516V59.692H254.62V60.88H253.396V59.8H250.252V60.76H252.436V61.972H250.252V62.944H253.396V61.84H254.62V63.052H253.516V64.144H250.132ZM258.136 64.144V63.064H257.044V60.88H255.952V58.6H257.164V60.76H258.244V62.944H259.228V60.76H260.308V58.6H261.532V60.88H260.428V63.064H259.348V64.144H258.136ZM263.597 64.144V63.064H262.505V59.692H263.597V58.6H266.981V59.692H268.085V60.88H266.861V59.8H263.717V60.76H265.901V61.972H263.717V62.944H266.861V61.84H268.085V63.052H266.981V64.144H263.597ZM269.536 64.144V58.6H274.012V59.692H275.116V64.144H273.892V59.8H270.748V64.144H269.536ZM277.425 64.144V63.064H276.333V58.6H277.545V62.944H280.689V58.6H281.913V63.064H280.809V64.144H277.425ZM284.222 64.144V63.064H283.13V59.692H284.222V58.6H287.606V59.692H288.71V60.88H287.486V59.8H284.342V60.76H286.526V61.972H284.342V62.944H287.486V61.84H288.71V63.052H287.606V64.144H284.222ZM290.161 64V62.788H291.373V64H290.161Z" fill="black"/>
</svg>
