<svg width="315" height="81" viewBox="0 0 315 81" fill="none" xmlns="http://www.w3.org/2000/svg">
<path d="M3.84891 10.256V3.692H4.94091V2.6H8.32491V3.692H9.42891V7.064H8.32491V8.144H5.06091V10.256H3.84891ZM5.06091 6.944H8.20491V3.8H5.06091V6.944ZM10.8802 8.144V2.6H12.0922V8.144H10.8802ZM10.8802 1.64V0.427999H12.0922V1.64H10.8802ZM13.5403 8.144V6.944H14.6323V5.852H15.7123V4.88H14.6323V3.8H13.5403V2.6H14.7523V3.692H15.8323V4.76H16.8163V3.692H17.8963V2.6H19.1203V3.8H18.0163V4.88H16.9363V5.852H18.0163V6.944H19.1203V8.144H17.8963V7.064H16.8163V5.972H15.8323V7.064H14.7523V8.144H13.5403ZM21.0659 8.144V7.064H19.9739V3.692H21.0659V2.6H24.4499V3.692H25.5539V6.944H26.6459V8.144H25.4339V7.064H24.4499V8.144H21.0659ZM21.1859 6.944H24.3299V3.8H21.1859V6.944ZM28.095 8.144V3.692H29.187V2.6H32.571V3.692H33.675V4.88H32.451V3.8H29.307V8.144H28.095ZM35.855 8.144V7.064H34.763V3.692H35.855V2.6H39.131V0.427999H40.343V7.064H39.239V8.144H35.855ZM35.975 6.944H39.119V3.8H35.975V6.944ZM41.7942 8.144V2.6H43.0062V8.144H41.7942ZM41.7942 1.64V0.427999H43.0062V1.64H41.7942ZM45.312 8.144V7.064H44.22V3.692H45.312V2.6H48.696V3.692H49.8V7.064H48.696V8.144H45.312ZM45.432 6.944H48.576V3.8H45.432V6.944ZM58.0096 8.144V5.972H53.6536V3.692H54.7456V2.6H55.8256V1.52H56.9296V0.427999H59.2336V8.144H58.0096ZM54.8656 4.76H58.0096V1.64H57.0496V2.72H55.9456V3.8H54.8656V4.76ZM61.7768 8.144V7.064H60.6848V1.52H61.7768V0.427999H65.1608V1.52H66.2648V7.064H65.1608V8.144H61.7768ZM61.8968 6.944H65.0408V1.64H61.8968V6.944ZM72.0721 8.144V5.972H67.7161V3.692H68.8081V2.6H69.8881V1.52H70.9921V0.427999H73.2961V8.144H72.0721ZM68.9281 4.76H72.0721V1.64H71.1121V2.72H70.0081V3.8H68.9281V4.76ZM77.1497 8.144V2.6H78.3617V8.144H77.1497ZM77.1497 1.64V0.427999H78.3617V1.64H77.1497ZM79.8098 8.144V6.944H84.1658V5.972H80.9018V4.88H79.8098V3.692H80.9018V2.6H85.3898V3.8H81.0218V4.76H84.2858V5.852H85.3898V7.064H84.2858V8.144H79.8098ZM90.3354 8.144V7.064H89.2434V3.692H90.3354V2.6H93.7194V3.692H94.8234V6.944H95.9154V8.144H94.7034V7.064H93.7194V8.144H90.3354ZM90.4554 6.944H93.5994V3.8H90.4554V6.944ZM99.7669 8.144V2.6H103.163V3.692H104.123V2.6H106.439V3.692H107.519V8.144H106.319V3.8H104.243V8.144H103.043V3.8H100.979V8.144H99.7669ZM108.966 10.256V3.692H110.058V2.6H113.442V3.692H114.546V7.064H113.442V8.144H110.178V10.256H108.966ZM110.178 6.944H113.322V3.8H110.178V6.944ZM115.997 8.144V0.427999H117.209V8.144H115.997ZM118.214 5.6V4.388H121.598V5.6H118.214ZM127.01 8.144V5.972H122.654V3.692H123.746V2.6H124.826V1.52H125.93V0.427999H128.234V8.144H127.01ZM123.866 4.76H127.01V1.64H126.05V2.72H124.946V3.8H123.866V4.76ZM130.777 8.144V7.064H129.685V1.52H130.777V0.427999H134.161V1.52H135.265V7.064H134.161V8.144H130.777ZM130.897 6.944H134.041V1.64H130.897V6.944ZM141.072 8.144V5.972H136.716V3.692H137.808V2.6H138.888V1.52H139.992V0.427999H142.296V8.144H141.072ZM137.928 4.76H141.072V1.64H140.112V2.72H139.008V3.8H137.928V4.76ZM148.322 8.144V7.064H147.242V3.8H146.15V2.6H147.242V0.427999H148.442V2.6H151.73V3.8H148.442V6.944H151.61V5.852H152.822V7.064H151.73V8.144H148.322ZM155 8.144V7.064H153.908V3.692H155V2.6H158.384V3.692H159.488V7.064H158.384V8.144H155ZM155.12 6.944H158.264V3.8H155.12V6.944ZM160.939 8.144V0.427999H162.151V4.76H163.111V3.692H165.295V2.6H166.519V3.8H165.415V4.88H163.231V5.852H165.415V6.944H166.519V8.144H165.295V7.064H163.111V5.972H162.151V8.144H160.939ZM168.347 8.144V7.064H167.255V3.692H168.347V2.6H171.731V3.692H172.835V4.88H171.611V3.8H168.467V4.76H170.651V5.972H168.467V6.944H171.611V5.84H172.835V7.052H171.731V8.144H168.347ZM174.286 8.144V2.6H178.762V3.692H179.866V8.144H178.642V3.8H175.498V8.144H174.286ZM183.72 8.144V0.427999H184.932V8.144H183.72ZM187.238 8.144V7.064H186.146V3.692H187.238V2.6H190.622V3.692H191.726V6.944H192.818V8.144H191.606V7.064H190.622V8.144H187.238ZM187.358 6.944H190.502V3.8H187.358V6.944ZM194.878 8.144V7.064H193.786V2.6H194.998V6.944H198.142V2.6H199.366V7.064H198.262V8.144H194.878ZM200.818 8.144V2.6H205.294V3.692H206.398V8.144H205.174V3.8H202.03V8.144H200.818ZM208.707 8.144V7.064H207.615V3.692H208.707V2.6H212.091V3.692H213.195V4.88H211.971V3.8H208.827V6.944H211.971V5.852H213.195V7.064H212.091V8.144H208.707ZM214.411 8.144V0.427999H215.623V3.692H216.583V2.6H218.887V3.692H219.991V8.144H218.767V3.8H216.703V4.88H215.623V8.144H214.411ZM221.443 10.256V3.692H222.535V2.6H225.919V3.692H227.023V7.064H225.919V8.144H222.655V10.256H221.443ZM222.655 6.944H225.799V3.8H222.655V6.944ZM229.566 8.144V7.064H228.474V3.692H229.566V2.6H232.95V3.692H234.054V6.944H235.146V8.144H233.934V7.064H232.95V8.144H229.566ZM229.686 6.944H232.83V3.8H229.686V6.944ZM237.089 8.144V7.064H235.997V3.692H237.089V2.6H240.365V0.427999H241.577V7.064H240.473V8.144H237.089ZM237.209 6.944H240.353V3.8H237.209V6.944ZM243.569 9.08V8.408H244.121V8H243.029V6.788H244.241V7.88H244.781V8.528H244.241V9.08H243.569ZM249.722 8.144V7.064H248.63V3.692H249.722V2.6H253.106V3.692H254.21V4.88H252.986V3.8H249.842V6.944H252.986V5.852H254.21V7.064H253.106V8.144H249.722ZM256.39 8.144V7.064H255.298V3.692H256.39V2.6H259.774V3.692H260.878V7.064H259.774V8.144H256.39ZM256.51 6.944H259.654V3.8H256.51V6.944ZM262.329 8.144V2.6H266.805V3.692H267.909V8.144H266.685V3.8H263.541V8.144H262.329ZM270.944 8.144V7.064H269.852V4.88H268.76V2.6H269.972V4.76H271.052V6.944H272.036V4.76H273.116V2.6H274.34V4.88H273.236V7.064H272.156V8.144H270.944ZM276.406 8.144V7.064H275.314V3.692H276.406V2.6H279.79V3.692H280.894V4.88H279.67V3.8H276.526V4.76H278.71V5.972H276.526V6.944H279.67V5.84H280.894V7.052H279.79V8.144H276.406ZM282.345 8.144V3.692H283.437V2.6H286.821V3.692H287.925V4.88H286.701V3.8H283.557V8.144H282.345ZM291.548 8.144V7.064H290.468V3.8H289.376V2.6H290.468V0.427999H291.668V2.6H294.956V3.8H291.668V6.944H294.836V5.852H296.048V7.064H294.956V8.144H291.548ZM298.226 8.144V7.064H297.134V3.692H298.226V2.6H301.61V3.692H302.714V4.88H301.49V3.8H298.346V4.76H300.53V5.972H298.346V6.944H301.49V5.84H302.714V7.052H301.61V8.144H298.226ZM304.165 8.144V3.692H305.257V2.6H308.641V3.692H309.745V4.88H308.521V3.8H305.377V8.144H304.165ZM309.932 9.08V8.408H310.484V8H309.392V6.788H310.604V7.88H311.144V8.528H310.604V9.08H309.932ZM26.5093 22.144V21.064H25.4173V17.692H26.5093V16.6H29.8933V17.692H30.9973V18.88H29.7733V17.8H26.6293V18.76H28.8133V19.972H26.6293V20.944H29.7733V19.84H30.9973V21.052H29.8933V22.144H26.5093ZM32.4485 22.144V20.944H33.5405V19.852H34.6205V18.88H33.5405V17.8H32.4485V16.6H33.6605V17.692H34.7405V18.76H35.7245V17.692H36.8045V16.6H38.0285V17.8H36.9245V18.88H35.8445V19.852H36.9245V20.944H38.0285V22.144H36.8045V21.064H35.7245V19.972H34.7405V21.064H33.6605V22.144H32.4485ZM39.4798 24.256V17.692H40.5718V16.6H43.9558V17.692H45.0598V21.064H43.9558V22.144H40.6918V24.256H39.4798ZM40.6918 20.944H43.8358V17.8H40.6918V20.944ZM46.511 22.144V14.428H47.723V22.144H46.511ZM50.0288 22.144V21.064H48.9368V17.692H50.0288V16.6H53.4128V17.692H54.5168V21.064H53.4128V22.144H50.0288ZM50.1488 20.944H53.2928V17.8H50.1488V20.944ZM55.968 22.144V17.692H57.06V16.6H60.444V17.692H61.548V18.88H60.324V17.8H57.18V22.144H55.968ZM63.728 22.144V21.064H62.636V17.692H63.728V16.6H67.112V17.692H68.216V18.88H66.992V17.8H63.848V18.76H66.032V19.972H63.848V20.944H66.992V19.84H68.216V21.052H67.112V22.144H63.728ZM69.6673 22.144V17.692H70.7593V16.6H74.1433V17.692H75.2473V18.88H74.0233V17.8H70.8793V22.144H69.6673ZM80.1929 22.144V21.064H79.1009V17.692H80.1929V16.6H83.5769V17.692H84.6809V20.944H85.7729V22.144H84.5609V21.064H83.5769V22.144H80.1929ZM80.3129 20.944H83.4569V17.8H80.3129V20.944ZM86.8587 22.144V16.6H91.3347V17.692H92.4387V22.144H91.2147V17.8H88.0707V22.144H86.8587ZM94.7475 22.144V21.064H93.6555V17.692H94.7475V16.6H98.0235V14.428H99.2355V21.064H98.1315V22.144H94.7475ZM94.8675 20.944H98.0115V17.8H94.8675V20.944ZM105.261 22.144V21.064H104.181V17.8H103.089V16.6H104.181V14.428H105.381V16.6H108.669V17.8H105.381V20.944H108.549V19.852H109.761V21.064H108.669V22.144H105.261ZM110.976 22.144V14.428H112.188V17.692H113.148V16.6H115.452V17.692H116.556V22.144H115.332V17.8H113.268V18.88H112.188V22.144H110.976ZM118.865 22.144V21.064H117.773V17.692H118.865V16.6H122.249V17.692H123.353V18.88H122.129V17.8H118.985V18.76H121.169V19.972H118.985V20.944H122.129V19.84H123.353V21.052H122.249V22.144H118.865ZM127.206 22.144V15.52H128.298V14.428H131.682V15.52H132.786V16.72H131.562V15.64H128.418V17.692H132.786V22.144H131.562V18.88H128.418V22.144H127.206ZM134.238 22.144V17.692H135.33V16.6H138.714V17.692H139.818V18.88H138.594V17.8H135.45V22.144H134.238ZM141.034 22.144V20.944H145.39V19.972H142.126V18.88H141.034V17.692H142.126V16.6H146.614V17.8H142.246V18.76H145.51V19.852H146.614V21.064H145.51V22.144H141.034ZM150.238 22.144V21.064H149.158V17.8H148.066V16.6H149.158V14.428H150.358V16.6H153.646V17.8H150.358V20.944H153.526V19.852H154.738V21.064H153.646V22.144H150.238ZM158.589 22.144V16.6H161.985V17.692H162.945V16.6H165.261V17.692H166.341V22.144H165.141V17.8H163.065V22.144H161.865V17.8H159.801V22.144H158.589ZM167.788 24.256V17.692H168.88V16.6H172.264V17.692H173.368V21.064H172.264V22.144H169V24.256H167.788ZM169 20.944H172.144V17.8H169V20.944ZM174.82 22.144V14.428H176.032V22.144H174.82ZM177.036 19.6V18.388H180.42V19.6H177.036ZM185.832 22.144V19.972H181.476V17.692H182.568V16.6H183.648V15.52H184.752V14.428H187.056V22.144H185.832ZM182.688 18.76H185.832V15.64H184.872V16.72H183.768V17.8H182.688V18.76ZM189.599 22.144V21.064H188.507V15.52H189.599V14.428H192.983V15.52H194.087V21.064H192.983V22.144H189.599ZM189.719 20.944H192.863V15.64H189.719V20.944ZM199.894 22.144V19.972H195.538V17.692H196.63V16.6H197.71V15.52H198.814V14.428H201.118V22.144H199.894ZM196.75 18.76H199.894V15.64H198.934V16.72H197.83V17.8H196.75V18.76ZM207.144 22.144V15.64H206.184V16.72H204.972V15.52H206.064V14.428H209.448V15.52H210.552V16.72H209.328V15.64H208.368V22.144H207.144ZM212.732 22.144V21.064H211.64V15.52H212.732V14.428H216.116V15.52H217.22V17.8H215.996V15.64H212.852V20.944H215.996V19.972H214.916V18.88H213.812V17.692H215.036V18.76H217.22V21.064H216.116V22.144H212.732ZM223.246 22.144V21.064H222.166V17.8H221.074V16.6H222.166V14.428H223.366V16.6H226.654V17.8H223.366V20.944H226.534V19.852H227.746V21.064H226.654V22.144H223.246ZM229.195 22.144V17.692H230.287V16.6H233.671V17.692H234.775V18.88H233.551V17.8H230.407V22.144H229.195ZM236.955 22.144V21.064H235.863V17.692H236.955V16.6H240.339V17.692H241.443V20.944H242.535V22.144H241.323V21.064H240.339V22.144H236.955ZM237.075 20.944H240.219V17.8H237.075V20.944ZM244.478 22.144V21.064H243.386V17.692H244.478V16.6H247.754V14.428H248.966V21.064H247.862V22.144H244.478ZM244.598 20.944H247.742V17.8H244.598V20.944ZM250.417 22.144V16.6H251.629V22.144H250.417ZM250.417 15.64V14.428H251.629V15.64H250.417ZM252.843 22.144V16.6H257.319V17.692H258.423V22.144H257.199V17.8H254.055V22.144H252.843ZM260.732 24.316V23.236H259.64V22.036H260.852V23.116H264.008V21.064H260.732V19.972H259.64V17.692H260.732V16.6H264.128V17.692H265.22V23.236H264.128V24.316H260.732ZM260.852 19.852H264.008V17.8H260.852V19.852ZM270.166 22.144V21.064H269.074V14.428H270.286V16.6H273.55V17.692H274.654V21.064H273.55V22.144H270.166ZM270.286 20.944H273.43V17.8H270.286V20.944ZM276.962 22.144V21.064H275.87V17.692H276.962V16.6H280.346V17.692H281.45V21.064H280.346V22.144H276.962ZM277.082 20.944H280.226V17.8H277.082V20.944ZM285.074 22.144V21.064H283.994V17.8H282.902V16.6H283.994V14.428H285.194V16.6H288.482V17.8H285.194V20.944H288.362V19.852H289.574V21.064H288.482V22.144H285.074ZM113.554 36.144V28.428H114.766V36.144H113.554ZM117.072 36.144V35.064H115.98V31.692H117.072V30.6H120.456V31.692H121.56V34.944H122.652V36.144H121.44V35.064H120.456V36.144H117.072ZM117.192 34.944H120.336V31.8H117.192V34.944ZM124.712 36.144V35.064H123.62V30.6H124.832V34.944H127.976V30.6H129.2V35.064H128.096V36.144H124.712ZM130.652 36.144V30.6H135.128V31.692H136.232V36.144H135.008V31.8H131.864V36.144H130.652ZM138.541 36.144V35.064H137.449V31.692H138.541V30.6H141.925V31.692H143.029V32.88H141.805V31.8H138.661V34.944H141.805V33.852H143.029V35.064H141.925V36.144H138.541ZM144.245 36.144V28.428H145.457V31.692H146.417V30.6H148.721V31.692H149.825V36.144H148.601V31.8H146.537V32.88H145.457V36.144H144.245ZM151.277 36.144V30.6H152.489V36.144H151.277ZM151.277 29.64V28.428H152.489V29.64H151.277ZM153.702 36.144V30.6H158.178V31.692H159.282V36.144H158.058V31.8H154.914V36.144H153.702ZM161.591 38.316V37.236H160.499V36.036H161.711V37.116H164.867V35.064H161.591V33.972H160.499V31.692H161.591V30.6H164.987V31.692H166.079V37.236H164.987V38.316H161.591ZM161.711 33.852H164.867V31.8H161.711V33.852ZM169.933 36.144V34.944H174.289V33.972H171.025V32.88H169.933V31.692H171.025V30.6H175.513V31.8H171.145V32.76H174.409V33.852H175.513V35.064H174.409V36.144H169.933ZM177.822 36.144V35.064H176.73V31.692H177.822V30.6H181.206V31.692H182.31V35.064H181.206V36.144H177.822ZM177.942 34.944H181.086V31.8H177.942V34.944ZM184.853 36.144V35.064H183.761V31.692H184.853V30.6H188.237V31.692H189.341V35.064H188.237V36.144H184.853ZM184.973 34.944H188.117V31.8H184.973V34.944ZM190.792 36.144V30.6H195.268V31.692H196.372V36.144H195.148V31.8H192.004V36.144H190.792ZM197.824 36V34.788H199.036V36H197.824ZM2.06981 64.144V63.064H0.977813V58.6H2.18981V62.944H5.33381V58.6H6.55781V63.064H5.45381V64.144H2.06981ZM7.89188 64.144V62.944H12.2479V61.972H8.98388V60.88H7.89188V59.692H8.98388V58.6H13.4719V59.8H9.10388V60.76H12.3679V61.852H13.4719V63.064H12.3679V64.144H7.89188ZM15.7808 64.144V63.064H14.6888V59.692H15.7808V58.6H19.1648V59.692H20.2688V60.88H19.0448V59.8H15.9008V60.76H18.0848V61.972H15.9008V62.944H19.0448V61.84H20.2688V63.052H19.1648V64.144H15.7808ZM21.72 64.144V59.692H22.812V58.6H26.196V59.692H27.3V60.88H26.076V59.8H22.932V64.144H21.72ZM28.5169 64.144V62.944H32.8729V61.972H29.6089V60.88H28.5169V59.692H29.6089V58.6H34.0969V59.8H29.7289V60.76H32.9929V61.852H34.0969V63.064H32.9929V64.144H28.5169ZM39.0425 64.144V63.064H37.9505V59.692H39.0425V58.6H42.4265V59.692H43.5305V60.88H42.3065V59.8H39.1625V62.944H42.3065V61.852H43.5305V63.064H42.4265V64.144H39.0425ZM45.7104 64.144V63.064H44.6184V59.692H45.7104V58.6H49.0944V59.692H50.1984V62.944H51.2904V64.144H50.0784V63.064H49.0944V64.144H45.7104ZM45.8304 62.944H48.9744V59.8H45.8304V62.944ZM52.3763 64.144V58.6H56.8523V59.692H57.9563V64.144H56.7323V59.8H53.5883V64.144H52.3763ZM62.9018 64.144V63.064H61.8098V56.428H63.0218V58.6H66.2858V59.692H67.3898V63.064H66.2858V64.144H62.9018ZM63.0218 62.944H66.1658V59.8H63.0218V62.944ZM69.9331 64.144V63.064H68.8411V58.6H70.0531V62.944H73.1971V58.6H74.4211V63.064H73.3171V64.144H69.9331ZM76.9643 66.316V65.236H75.8723V64.036H77.0843V65.116H80.2403V63.064H76.9643V61.972H75.8723V58.6H77.0843V61.852H80.2403V58.6H81.4523V65.236H80.3603V66.316H76.9643ZM87.5859 65.236V64.144H86.3979V63.064H85.3059V61.852H86.5179V62.944H89.6619V60.88H86.3979V59.8H85.3059V57.52H86.3979V56.428H87.5859V55.336H88.8099V56.428H89.7819V57.52H90.8859V58.72H89.6619V57.64H86.5179V59.692H89.7819V60.76H90.8859V63.064H89.7819V64.144H88.8099V65.236H87.5859ZM92.3372 66.256V59.692H93.4292V58.6H96.8132V59.692H97.9172V63.064H96.8132V64.144H93.5492V66.256H92.3372ZM93.5492 62.944H96.6932V59.8H93.5492V62.944ZM99.3684 64.144V58.6H100.58V64.144H99.3684ZM99.3684 57.64V56.428H100.58V57.64H99.3684ZM102.029 64.144V62.944H103.121V61.852H104.201V60.88H103.121V59.8H102.029V58.6H103.241V59.692H104.321V60.76H105.305V59.692H106.385V58.6H107.609V59.8H106.505V60.88H105.425V61.852H106.505V62.944H107.609V64.144H106.385V63.064H105.305V61.972H104.321V63.064H103.241V64.144H102.029ZM113.416 64.144V61.972H109.06V59.692H110.152V58.6H111.232V57.52H112.336V56.428H114.64V64.144H113.416ZM110.272 60.76H113.416V57.64H112.456V58.72H111.352V59.8H110.272V60.76ZM117.183 64.144V63.064H116.091V57.52H117.183V56.428H120.567V57.52H121.671V63.064H120.567V64.144H117.183ZM117.303 62.944H120.447V57.64H117.303V62.944ZM127.478 64.144V61.972H123.122V59.692H124.214V58.6H125.294V57.52H126.398V56.428H128.702V64.144H127.478ZM124.334 60.76H127.478V57.64H126.518V58.72H125.414V59.8H124.334V60.76ZM130.694 65.08V64.408H131.246V64H130.154V62.788H131.366V63.88H131.906V64.528H131.366V65.08H130.694ZM136.847 64.144V63.064H135.755V59.692H136.847V58.6H140.231V59.692H141.335V60.88H140.111V59.8H136.967V62.944H140.111V61.852H141.335V63.064H140.231V64.144H136.847ZM143.515 64.144V63.064H142.423V59.692H143.515V58.6H146.899V59.692H148.003V63.064H146.899V64.144H143.515ZM143.635 62.944H146.779V59.8H143.635V62.944ZM149.454 64.144V58.6H153.93V59.692H155.034V64.144H153.81V59.8H150.666V64.144H149.454ZM158.069 64.144V63.064H156.977V60.88H155.885V58.6H157.097V60.76H158.177V62.944H159.161V60.76H160.241V58.6H161.465V60.88H160.361V63.064H159.281V64.144H158.069ZM163.531 64.144V63.064H162.439V59.692H163.531V58.6H166.915V59.692H168.019V60.88H166.795V59.8H163.651V60.76H165.835V61.972H163.651V62.944H166.795V61.84H168.019V63.052H166.915V64.144H163.531ZM169.47 64.144V59.692H170.562V58.6H173.946V59.692H175.05V60.88H173.826V59.8H170.682V64.144H169.47ZM178.673 64.144V63.064H177.593V59.8H176.501V58.6H177.593V56.428H178.793V58.6H182.081V59.8H178.793V62.944H181.961V61.852H183.173V63.064H182.081V64.144H178.673ZM189.197 64.144V63.064H188.117V59.8H187.025V58.6H188.117V56.428H189.317V58.6H192.605V59.8H189.317V62.944H192.485V61.852H193.697V63.064H192.605V64.144H189.197ZM195.875 64.144V63.064H194.783V59.692H195.875V58.6H199.259V59.692H200.363V63.064H199.259V64.144H195.875ZM195.995 62.944H199.139V59.8H195.995V62.944ZM204.216 64.144V62.944H205.308V61.852H206.388V60.76H207.492V59.8H204.216V58.6H209.796V59.8H208.692V60.88H207.612V61.972H206.508V62.944H209.796V64.144H204.216ZM211.247 64.144V56.428H212.459V60.76H213.419V59.692H215.603V58.6H216.827V59.8H215.723V60.88H213.539V61.852H215.723V62.944H216.827V64.144H215.603V63.064H213.419V61.972H212.459V64.144H211.247ZM221.773 64.144V63.064H220.681V59.692H221.773V58.6H225.157V59.692H226.261V60.88H225.037V59.8H221.893V62.944H225.037V61.852H226.261V63.064H225.157V64.144H221.773ZM228.441 64.144V63.064H227.349V59.692H228.441V58.6H231.825V59.692H232.929V63.064H231.825V64.144H228.441ZM228.561 62.944H231.705V59.8H228.561V62.944ZM234.38 64.144V58.6H237.776V59.692H238.736V58.6H241.052V59.692H242.132V64.144H240.932V59.8H238.856V64.144H237.656V59.8H235.592V64.144H234.38ZM243.579 66.256V59.692H244.671V58.6H248.055V59.692H249.159V63.064H248.055V64.144H244.791V66.256H243.579ZM244.791 62.944H247.935V59.8H244.791V62.944ZM250.611 64.144V59.692H251.703V58.6H255.087V59.692H256.191V60.88H254.967V59.8H251.823V64.144H250.611ZM258.371 64.144V63.064H257.279V59.692H258.371V58.6H261.755V59.692H262.859V60.88H261.635V59.8H258.491V60.76H260.675V61.972H258.491V62.944H261.635V61.84H262.859V63.052H261.755V64.144H258.371ZM264.31 64.144V62.944H268.666V61.972H265.402V60.88H264.31V59.692H265.402V58.6H269.89V59.8H265.522V60.76H268.786V61.852H269.89V63.064H268.786V64.144H264.31ZM271.107 64.144V62.944H275.463V61.972H272.199V60.88H271.107V59.692H272.199V58.6H276.687V59.8H272.319V60.76H275.583V61.852H276.687V63.064H275.583V64.144H271.107ZM278.996 64.144V63.064H277.904V59.692H278.996V58.6H282.38V59.692H283.484V60.88H282.26V59.8H279.116V60.76H281.3V61.972H279.116V62.944H282.26V61.84H283.484V63.052H282.38V64.144H278.996ZM286.027 64.144V63.064H284.935V59.692H286.027V58.6H289.303V56.428H290.515V63.064H289.411V64.144H286.027ZM286.147 62.944H289.291V59.8H286.147V62.944ZM294.368 64.144V56.428H295.58V57.52H296.66V58.6H297.764V61.852H298.724V56.428H299.948V64.144H298.724V63.064H297.644V61.972H296.54V58.72H295.58V64.144H294.368ZM301.4 64.144V56.428H305.876V57.52H306.98V58.72H305.756V57.64H302.612V59.692H304.796V60.88H302.612V64.144H301.4ZM310.603 64.144V57.64H309.643V58.72H308.431V57.52H309.523V56.428H312.907V57.52H314.011V58.72H312.787V57.64H311.827V64.144H310.603ZM19.5132 78.144V77.064H18.4212V73.692H19.5132V72.6H22.8972V73.692H24.0012V76.944H25.0932V78.144H23.8812V77.064H22.8972V78.144H19.5132ZM19.6332 76.944H22.7772V73.8H19.6332V76.944ZM26.179 78.144V72.6H30.655V73.692H31.759V78.144H30.535V73.8H27.391V78.144H26.179ZM34.0679 78.144V77.064H32.9759V73.692H34.0679V72.6H37.3439V70.428H38.5559V77.064H37.4519V78.144H34.0679ZM34.1879 76.944H37.3319V73.8H34.1879V76.944ZM42.4095 78.144V76.944H46.7655V75.972H43.5015V74.88H42.4095V73.692H43.5015V72.6H47.9895V73.8H43.6215V74.76H46.8855V75.852H47.9895V77.064H46.8855V78.144H42.4095ZM51.6127 78.144V77.064H50.5327V73.8H49.4407V72.6H50.5327V70.428H51.7327V72.6H55.0207V73.8H51.7327V76.944H54.9007V75.852H56.1127V77.064H55.0207V78.144H51.6127ZM58.2905 78.144V77.064H57.1985V73.692H58.2905V72.6H61.6745V73.692H62.7785V76.944H63.8705V78.144H62.6585V77.064H61.6745V78.144H58.2905ZM58.4105 76.944H61.5545V73.8H58.4105V76.944ZM64.8391 78.144V70.428H66.0511V74.76H67.0111V73.692H69.1951V72.6H70.4191V73.8H69.3151V74.88H67.1311V75.852H69.3151V76.944H70.4191V78.144H69.1951V77.064H67.0111V75.972H66.0511V78.144H64.8391ZM72.2475 78.144V77.064H71.1555V73.692H72.2475V72.6H75.6315V73.692H76.7355V74.88H75.5115V73.8H72.3675V74.76H74.5515V75.972H72.3675V76.944H75.5115V75.84H76.7355V77.052H75.6315V78.144H72.2475ZM82.7611 78.144V77.064H81.6811V73.8H80.5891V72.6H81.6811V70.428H82.8811V72.6H86.1691V73.8H82.8811V76.944H86.0491V75.852H87.2611V77.064H86.1691V78.144H82.7611ZM89.439 78.144V77.064H88.347V73.692H89.439V72.6H92.823V73.692H93.927V77.064H92.823V78.144H89.439ZM89.559 76.944H92.703V73.8H89.559V76.944ZM97.7805 78.144V73.692H98.8725V72.6H102.257V73.692H103.361V74.88H102.137V73.8H98.9925V78.144H97.7805ZM105.541 78.144V77.064H104.449V73.692H105.541V72.6H108.925V73.692H110.029V74.88H108.805V73.8H105.661V74.76H107.845V75.972H105.661V76.944H108.805V75.84H110.029V77.052H108.925V78.144H105.541ZM112.572 78.144V77.064H111.48V73.692H112.572V72.6H115.956V73.692H117.06V74.88H115.836V73.8H112.692V76.944H115.836V75.852H117.06V77.064H115.956V78.144H112.572ZM119.24 78.144V77.064H118.148V73.692H119.24V72.6H122.624V73.692H123.728V74.88H122.504V73.8H119.36V74.76H121.544V75.972H119.36V76.944H122.504V75.84H123.728V77.052H122.624V78.144H119.24ZM125.179 78.144V72.6H126.391V78.144H125.179ZM125.179 71.64V70.428H126.391V71.64H125.179ZM129.903 78.144V77.064H128.811V74.88H127.719V72.6H128.931V74.76H130.011V76.944H130.995V74.76H132.075V72.6H133.299V74.88H132.195V77.064H131.115V78.144H129.903ZM135.365 78.144V77.064H134.273V73.692H135.365V72.6H138.749V73.692H139.853V74.88H138.629V73.8H135.485V74.76H137.669V75.972H135.485V76.944H138.629V75.84H139.853V77.052H138.749V78.144H135.365ZM143.706 78.144V73.692H144.798V72.6H148.182V73.692H149.286V74.88H148.062V73.8H144.918V78.144H143.706ZM151.466 78.144V77.064H150.374V73.692H151.466V72.6H154.85V73.692H155.954V74.88H154.73V73.8H151.586V74.76H153.77V75.972H151.586V76.944H154.73V75.84H155.954V77.052H154.85V78.144H151.466ZM159.47 78.144V77.064H158.378V74.88H157.286V72.6H158.498V74.76H159.578V76.944H160.562V74.76H161.642V72.6H162.866V74.88H161.762V77.064H160.682V78.144H159.47ZM164.931 78.144V77.064H163.839V73.692H164.931V72.6H168.315V73.692H169.419V74.88H168.195V73.8H165.051V74.76H167.235V75.972H165.051V76.944H168.195V75.84H169.419V77.052H168.315V78.144H164.931ZM170.87 78.144V72.6H175.346V73.692H176.45V78.144H175.226V73.8H172.082V78.144H170.87ZM178.759 78.144V77.064H177.667V72.6H178.879V76.944H182.023V72.6H183.247V77.064H182.143V78.144H178.759ZM185.556 78.144V77.064H184.464V73.692H185.556V72.6H188.94V73.692H190.044V74.88H188.82V73.8H185.676V74.76H187.86V75.972H185.676V76.944H188.82V75.84H190.044V77.052H188.94V78.144H185.556ZM193.898 78.144V71.52H194.99V70.428H198.374V71.52H199.478V72.72H198.254V71.64H195.11V73.692H197.294V74.88H195.11V78.144H193.898ZM199.605 78.144V73.692H200.697V72.6H204.081V73.692H205.185V74.88H203.961V73.8H200.817V78.144H199.605ZM207.365 78.144V77.064H206.273V73.692H207.365V72.6H210.749V73.692H211.853V77.064H210.749V78.144H207.365ZM207.485 76.944H210.629V73.8H207.485V76.944ZM213.304 78.144V72.6H216.7V73.692H217.66V72.6H219.976V73.692H221.056V78.144H219.856V73.8H217.78V78.144H216.58V73.8H214.516V78.144H213.304ZM227.078 78.144V77.064H225.998V73.8H224.906V72.6H225.998V70.428H227.198V72.6H230.486V73.8H227.198V76.944H230.366V75.852H231.578V77.064H230.486V78.144H227.078ZM232.792 78.144V70.428H234.004V73.692H234.964V72.6H237.268V73.692H238.372V78.144H237.148V73.8H235.084V74.88H234.004V78.144H232.792ZM240.681 78.144V77.064H239.589V73.692H240.681V72.6H244.065V73.692H245.169V74.88H243.945V73.8H240.801V74.76H242.985V75.972H240.801V76.944H243.945V75.84H245.169V77.052H244.065V78.144H240.681ZM249.023 80.256V73.692H250.115V72.6H253.499V73.692H254.603V77.064H253.499V78.144H250.235V80.256H249.023ZM250.235 76.944H253.379V73.8H250.235V76.944ZM256.054 78.144V73.692H257.146V72.6H260.53V73.692H261.634V74.88H260.41V73.8H257.266V78.144H256.054ZM263.814 78.144V77.064H262.722V73.692H263.814V72.6H267.198V73.692H268.302V77.064H267.198V78.144H263.814ZM263.934 76.944H267.078V73.8H263.934V76.944ZM270.845 78.144V77.064H269.753V73.692H270.845V72.6H274.121V70.428H275.333V77.064H274.229V78.144H270.845ZM270.965 76.944H274.109V73.8H270.965V76.944ZM277.642 78.144V77.064H276.55V72.6H277.762V76.944H280.906V72.6H282.13V77.064H281.026V78.144H277.642ZM284.556 78.144V77.064H283.464V73.692H284.556V72.6H287.94V73.692H289.044V74.88H287.82V73.8H284.676V76.944H287.82V75.852H289.044V77.064H287.94V78.144H284.556ZM292.07 78.144V77.064H290.99V73.8H289.898V72.6H290.99V70.428H292.19V72.6H295.478V73.8H292.19V76.944H295.358V75.852H296.57V77.064H295.478V78.144H292.07Z" fill="black"/>
</svg>
